<?xml version="1.0" encoding="iso-8859-1"?>
<!-- Uploaded to: SVG Repo, www.svgrepo.com, Transformed by: SVG Repo Mixer Tools -->
<svg version="1.1" id="Layer_1" xmlns="http://www.w3.org/2000/svg" xmlns:xlink="http://www.w3.org/1999/xlink" 
	 viewBox="0 0 512 512" xml:space="preserve">
<g>
	<rect x="13.838" y="103.784" style="fill:#CFF09E;" width="76.108" height="304.432"/>
	<rect x="422.054" y="103.784" style="fill:#CFF09E;" width="76.108" height="304.432"/>
	<circle style="fill:#CFF09E;" cx="256" cy="256" r="41.514"/>
</g>
<path style="fill:#507C5C;" d="M498.162,89.946H345.946c-7.641,0-13.838,6.197-13.838,13.838v221.405
	c0,7.641,6.197,13.838,13.838,13.838s13.838-6.197,13.838-13.838V117.622h48.432v276.757H269.838v-84.779
	c23.847-6.161,41.514-27.856,41.514-53.599s-17.667-47.439-41.514-53.599v-98.617c0-7.641-6.197-13.838-13.838-13.838H13.838
	C6.197,89.946,0,96.143,0,103.784v304.432c0,7.641,6.197,13.838,13.838,13.838h484.324c7.641,0,13.838-6.197,13.838-13.838V103.784
	C512,96.143,505.803,89.946,498.162,89.946z M166.054,172.973c-7.641,0-13.838,6.197-13.838,13.838v207.568h-48.432V117.622h138.378
	v84.779c-23.847,6.161-41.514,27.856-41.514,53.599s17.667,47.439,41.514,53.599v84.779h-62.27V186.811
	C179.892,179.17,173.695,172.973,166.054,172.973z M283.676,256c0,15.26-12.415,27.676-27.676,27.676S228.324,271.26,228.324,256
	S240.74,228.324,256,228.324S283.676,240.74,283.676,256z M27.676,394.378V117.622h48.432v276.757H27.676z M484.324,394.378h-48.432
	V117.622h48.432V394.378z"/>
</svg>